<svg width="12" height="12" viewBox="0 0 12 12" fill="none" xmlns="http://www.w3.org/2000/svg">
<path d="M11 0.999986C10.8437 0.84376 10.6318 0.755997 10.4108 0.755997C10.1898 0.755997 9.97791 0.84376 9.82164 0.999986L5.99997 4.82165L2.1783 0.999986C2.02203 0.84376 1.81011 0.755997 1.58914 0.755997C1.36817 0.755997 1.15624 0.84376 0.99997 0.999986C0.843744 1.15626 0.755981 1.36818 0.755981 1.58915C0.755981 1.81012 0.843744 2.02205 0.99997 2.17832L4.82164 5.99999L0.99997 9.82165C0.843744 9.97793 0.755981 10.1898 0.755981 10.4108C0.755981 10.6318 0.843744 10.8437 0.99997 11C1.15624 11.1562 1.36817 11.244 1.58914 11.244C1.81011 11.244 2.02203 11.1562 2.1783 11L5.99997 7.17832L9.82164 11C9.97791 11.1562 10.1898 11.244 10.4108 11.244C10.6318 11.244 10.8437 11.1562 11 11C11.1562 10.8437 11.244 10.6318 11.244 10.4108C11.244 10.1898 11.1562 9.97793 11 9.82165L7.1783 5.99999L11 2.17832C11.1562 2.02205 11.244 1.81012 11.244 1.58915C11.244 1.36818 11.1562 1.15626 11 0.999986Z" fill="#9098B4"/>
</svg>
