<svg width="20" height="20" viewBox="0 0 20 20" fill="none" xmlns="http://www.w3.org/2000/svg">
<g clip-path="url(#clip0_1_1001)">
<path d="M16.8753 10.1688C16.8784 10.0563 16.8784 9.94379 16.8753 9.83129L18.0409 8.37504C18.102 8.29858 18.1443 8.20883 18.1644 8.11303C18.1845 8.01722 18.1818 7.91804 18.1565 7.82347C17.9651 7.10531 17.6793 6.4157 17.3065 5.77269C17.2577 5.68857 17.1899 5.617 17.1085 5.5637C17.0271 5.5104 16.9344 5.47683 16.8378 5.46566L14.9847 5.25941C14.9076 5.17816 14.8294 5.10004 14.7503 5.02504L14.5315 3.16722C14.5203 3.07051 14.4866 2.97777 14.4331 2.89639C14.3797 2.815 14.308 2.74723 14.2237 2.69847C13.5808 2.32601 12.8911 2.0407 12.1729 1.85004C12.0784 1.82477 11.9792 1.82207 11.8834 1.84215C11.7876 1.86224 11.6978 1.90454 11.6214 1.96566L10.169 3.12504C10.0565 3.12504 9.94403 3.12504 9.83153 3.12504L8.37528 1.96175C8.29882 1.90064 8.20907 1.85833 8.11327 1.83825C8.01747 1.81816 7.91829 1.82086 7.82372 1.84613C7.10555 2.03756 6.41595 2.32338 5.77294 2.69613C5.68881 2.74498 5.61725 2.81279 5.56394 2.89417C5.51064 2.97555 5.47707 3.06824 5.4659 3.16488L5.25965 5.02113C5.1784 5.09873 5.10028 5.17686 5.02528 5.2555L3.16747 5.46879C3.07076 5.48004 2.97801 5.51373 2.89663 5.56717C2.81525 5.62061 2.74748 5.69233 2.69872 5.7766C2.32633 6.4197 2.04078 7.10929 1.8495 7.82738C1.82434 7.92201 1.82177 8.02122 1.84199 8.11703C1.86221 8.21284 1.90465 8.30255 1.9659 8.37894L3.12528 9.83129C3.12528 9.94379 3.12528 10.0563 3.12528 10.1688L1.962 11.625C1.90088 11.7015 1.85858 11.7912 1.83849 11.887C1.81841 11.9828 1.82111 12.082 1.84637 12.1766C2.0378 12.8948 2.32363 13.5844 2.69637 14.2274C2.74522 14.3115 2.81303 14.3831 2.89441 14.4364C2.97579 14.4897 3.06849 14.5232 3.16512 14.5344L5.01825 14.7407C5.09585 14.8219 5.17398 14.9 5.25262 14.975L5.46903 16.8328C5.48028 16.9296 5.51397 17.0223 5.56741 17.1037C5.62085 17.1851 5.69257 17.2528 5.77684 17.3016C6.41994 17.674 7.10953 17.9595 7.82762 18.1508C7.92225 18.176 8.02147 18.1785 8.11727 18.1583C8.21308 18.1381 8.30279 18.0957 8.37919 18.0344L9.83153 16.875C9.94403 16.8782 10.0565 16.8782 10.169 16.875L11.6253 18.0407C11.7017 18.1018 11.7915 18.1441 11.8873 18.1642C11.9831 18.1842 12.0823 18.1816 12.1768 18.1563C12.8951 17.9652 13.5848 17.6794 14.2276 17.3063C14.3118 17.2574 14.3833 17.1896 14.4366 17.1082C14.4899 17.0269 14.5235 16.9342 14.5347 16.8375L14.7409 14.9844C14.8222 14.9073 14.9003 14.8292 14.9753 14.75L16.8331 14.5313C16.9298 14.52 17.0225 14.4863 17.1039 14.4329C17.1853 14.3795 17.2531 14.3077 17.3018 14.2235C17.6742 13.5804 17.9598 12.8908 18.1511 12.1727C18.1762 12.0781 18.1788 11.9788 18.1586 11.883C18.1384 11.7872 18.0959 11.6975 18.0347 11.6211L16.8753 10.1688ZM10.0003 13.125C9.38221 13.125 8.77803 12.9418 8.26412 12.5984C7.75022 12.255 7.34968 11.7669 7.11316 11.1959C6.87663 10.6249 6.81475 9.99657 6.93533 9.39038C7.0559 8.78419 7.35353 8.22737 7.79057 7.79033C8.22761 7.35329 8.78443 7.05566 9.39062 6.93508C9.99681 6.8145 10.6251 6.87639 11.1962 7.11291C11.7672 7.34944 12.2552 7.74998 12.5986 8.26388C12.942 8.77778 13.1253 9.38197 13.1253 10C13.1253 10.8288 12.796 11.6237 12.21 12.2097C11.6239 12.7958 10.8291 13.125 10.0003 13.125Z" fill="#9098B4"/>
</g>
<defs>
<clipPath id="clip0_1_1001">
<rect width="20" height="20" fill="white"/>
</clipPath>
</defs>
</svg>
