<svg width="761" height="158" viewBox="0 0 761 158" fill="none" xmlns="http://www.w3.org/2000/svg">
<path d="M0 50C0 47.2386 2.23858 45 5 45H10.7C13.4614 45 15.7 47.2386 15.7 50V155C15.7 156.657 14.3569 158 12.7 158H3C1.34314 158 0 156.657 0 155V50Z" fill="#5898FF"/>
<path d="M25.7 13C25.7 10.2386 27.9385 8 30.7 8H36.4C39.1614 8 41.4 10.2386 41.4 13V155C41.4 156.657 40.0568 158 38.4 158H28.6999C27.0431 158 25.7 156.657 25.7 155V13Z" fill="#EFF5FF"/>
<path d="M51.3999 69C51.3999 66.2386 53.6385 64 56.3999 64H62.0999C64.8613 64 67.0999 66.2386 67.0999 69V155C67.0999 156.657 65.7568 158 64.0999 158H54.3999C52.743 158 51.3999 156.657 51.3999 155V69Z" fill="#5898FF"/>
<path d="M77.0999 13C77.0999 10.2386 79.3384 8 82.0999 8H87.7999C90.5613 8 92.7999 10.2386 92.7999 13V155C92.7999 156.657 91.4567 158 89.7999 158H80.0999C78.443 158 77.0999 156.657 77.0999 155V13Z" fill="#EFF5FF"/>
<path d="M102.8 104C102.8 101.239 105.039 99 107.8 99H113.5C116.261 99 118.5 101.239 118.5 104V155C118.5 156.657 117.157 158 115.5 158H105.8C104.143 158 102.8 156.657 102.8 155V104Z" fill="#5898FF"/>
<path d="M128.5 78C128.5 75.2386 130.739 73 133.5 73H139.2C141.961 73 144.2 75.2386 144.2 78V155C144.2 156.657 142.857 158 141.2 158H131.5C129.843 158 128.5 156.657 128.5 155V78Z" fill="#EFF5FF"/>
<path d="M154.2 64C154.2 61.2386 156.439 59 159.2 59H164.9C167.661 59 169.9 61.2386 169.9 64V155C169.9 156.657 168.557 158 166.9 158H157.2C155.543 158 154.2 156.657 154.2 155V64Z" fill="#5898FF"/>
<path d="M179.9 9C179.9 6.23858 182.138 4 184.9 4H190.6C193.361 4 195.6 6.23858 195.6 9V155C195.6 156.657 194.257 158 192.6 158H182.9C181.243 158 179.9 156.657 179.9 155V9Z" fill="#EFF5FF"/>
<path d="M205.6 73C205.6 70.2386 207.839 68 210.6 68H216.3C219.062 68 221.3 70.2386 221.3 73V155C221.3 156.657 219.957 158 218.3 158H208.6C206.943 158 205.6 156.657 205.6 155V73Z" fill="#5898FF"/>
<path d="M231.3 19C231.3 16.2386 233.539 14 236.3 14H242C244.761 14 247 16.2386 247 19V155C247 156.657 245.657 158 244 158H234.3C232.643 158 231.3 156.657 231.3 155V19Z" fill="#EFF5FF"/>
<path d="M257 77C257 74.2386 259.239 72 262 72H267.7C270.461 72 272.7 74.2386 272.7 77V155C272.7 156.657 271.357 158 269.7 158H260C258.343 158 257 156.657 257 155V77Z" fill="#5898FF"/>
<path d="M282.7 50C282.7 47.2386 284.939 45 287.7 45H293.4C296.161 45 298.4 47.2386 298.4 50V155C298.4 156.657 297.057 158 295.4 158H285.7C284.043 158 282.7 156.657 282.7 155V50Z" fill="#EFF5FF"/>
<path d="M308.4 98C308.4 95.2386 310.638 93 313.4 93H319.1C321.861 93 324.1 95.2386 324.1 98V155C324.1 156.657 322.757 158 321.1 158H311.4C309.743 158 308.4 156.657 308.4 155V98Z" fill="#5898FF"/>
<path d="M334.1 55C334.1 52.2386 336.338 50 339.1 50H344.8C347.561 50 349.8 52.2386 349.8 55V155C349.8 156.657 348.457 158 346.8 158H337.1C335.443 158 334.1 156.657 334.1 155V55Z" fill="#EFF5FF"/>
<path d="M359.8 63C359.8 60.2386 362.039 58 364.8 58H370.5C373.261 58 375.5 60.2386 375.5 63V155C375.5 156.657 374.157 158 372.5 158H362.8C361.143 158 359.8 156.657 359.8 155V63Z" fill="#5898FF"/>
<path d="M385.5 5C385.5 2.23858 387.739 0 390.5 0H396.2C398.961 0 401.2 2.23858 401.2 5V155C401.2 156.657 399.857 158 398.2 158H388.5C386.843 158 385.5 156.657 385.5 155V5Z" fill="#EFF5FF"/>
<path d="M411.2 72C411.2 69.2386 413.439 67 416.2 67H421.9C424.661 67 426.9 69.2386 426.9 72V155C426.9 156.657 425.557 158 423.9 158H414.2C412.543 158 411.2 156.657 411.2 155V72Z" fill="#5898FF"/>
<path d="M436.9 48C436.9 45.2386 439.138 43 441.9 43H447.6C450.361 43 452.6 45.2386 452.6 48V155C452.6 156.657 451.257 158 449.6 158H439.9C438.243 158 436.9 156.657 436.9 155V48Z" fill="#EFF5FF"/>
<path d="M462.6 82C462.6 79.2386 464.839 77 467.6 77H473.3C476.062 77 478.3 79.2386 478.3 82V155C478.3 156.657 476.957 158 475.3 158H465.6C463.943 158 462.6 156.657 462.6 155V82Z" fill="#5898FF"/>
<path d="M488.3 40C488.3 37.2386 490.539 35 493.3 35H499C501.761 35 504 37.2386 504 40V155C504 156.657 502.657 158 501 158H491.3C489.643 158 488.3 156.657 488.3 155V40Z" fill="#EFF5FF"/>
<path d="M514 79C514 76.2386 516.239 74 519 74H524.7C527.461 74 529.7 76.2386 529.7 79V155C529.7 156.657 528.357 158 526.7 158H517C515.343 158 514 156.657 514 155V79Z" fill="#5898FF"/>
<path d="M539.7 24C539.7 21.2386 541.939 19 544.7 19H550.4C553.161 19 555.4 21.2386 555.4 24V155C555.4 156.657 554.057 158 552.4 158H542.7C541.043 158 539.7 156.657 539.7 155V24Z" fill="#EFF5FF"/>
<path d="M565.4 82C565.4 79.2386 567.638 77 570.4 77H576.1C578.861 77 581.1 79.2386 581.1 82V155C581.1 156.657 579.757 158 578.1 158H568.4C566.743 158 565.4 156.657 565.4 155V82Z" fill="#5898FF"/>
<path d="M591.1 13C591.1 10.2386 593.338 8 596.1 8H601.8C604.561 8 606.8 10.2386 606.8 13V155C606.8 156.657 605.457 158 603.8 158H594.1C592.443 158 591.1 156.657 591.1 155V13Z" fill="#EFF5FF"/>
<path d="M616.8 75C616.8 72.2386 619.039 70 621.8 70H627.5C630.261 70 632.5 72.2386 632.5 75V155C632.5 156.657 631.157 158 629.5 158H619.8C618.143 158 616.8 156.657 616.8 155V75Z" fill="#5898FF"/>
<path d="M642.5 13C642.5 10.2386 644.739 8 647.5 8H653.2C655.961 8 658.2 10.2386 658.2 13V155C658.2 156.657 656.857 158 655.2 158H645.5C643.843 158 642.5 156.657 642.5 155V13Z" fill="#EFF5FF"/>
<path d="M668.2 58C668.2 55.2386 670.439 53 673.2 53H678.9C681.662 53 683.9 55.2386 683.9 58V155C683.9 156.657 682.557 158 680.9 158H671.2C669.543 158 668.2 156.657 668.2 155V58Z" fill="#5898FF"/>
<path d="M693.9 13C693.9 10.2386 696.139 8 698.9 8H704.6C707.362 8 709.6 10.2386 709.6 13V155C709.6 156.657 708.257 158 706.6 158H696.9C695.243 158 693.9 156.657 693.9 155V13Z" fill="#EFF5FF"/>
<path d="M719.6 58C719.6 55.2386 721.839 53 724.6 53H730.3C733.062 53 735.3 55.2386 735.3 58V155C735.3 156.657 733.957 158 732.3 158H722.6C720.943 158 719.6 156.657 719.6 155V58Z" fill="#5898FF"/>
<path d="M745.3 13C745.3 10.2386 747.539 8 750.3 8H756C758.761 8 761 10.2386 761 13V155C761 156.657 759.657 158 758 158H748.3C746.643 158 745.3 156.657 745.3 155V13Z" fill="#EFF5FF"/>
</svg>
