<svg width="1042" height="88" viewBox="0 0 1042 88" fill="none" xmlns="http://www.w3.org/2000/svg">
<path d="M1 87L48.1499 68.6363C48.3813 68.5462 48.6274 68.5 48.8757 68.5H71L110.698 63.1631C110.898 63.1361 111.101 63.1397 111.301 63.1737L195.125 77.468C195.289 77.496 195.456 77.5034 195.622 77.49L276 71L326.5 68L458.241 77.5102L512 80L556.705 83.6199C556.81 83.6284 556.915 83.6286 557.019 83.6207L637 77.5102L718.338 64.0269C718.446 64.009 718.555 64 718.665 64H742H773.254C773.735 64 774.2 63.8265 774.564 63.5114L803.519 38.4169C803.832 38.1457 804.221 37.9783 804.634 37.9379L829.292 35.5204C829.43 35.5068 829.57 35.5077 829.708 35.5231L852 38H885.256C885.418 38 885.579 38.0197 885.737 38.0586L935.525 50.3824C935.837 50.4597 936.163 50.4606 936.476 50.3851L975.97 40.8392C976.868 40.6222 977.5 39.8188 977.5 38.8952V13.5C977.5 12.3954 978.395 11.5 979.5 11.5H1014.64C1014.88 11.5 1015.11 11.4581 1015.34 11.3761L1041 1.89795" stroke="#D6E6FF" stroke-width="2"/>
</svg>
