<svg width="1042" height="135" viewBox="0 0 1042 135" fill="none" xmlns="http://www.w3.org/2000/svg">
<path d="M1 134L43.2869 104.168C43.9902 103.672 44.8728 103.502 45.7101 103.701L71.9982 109.95C72.4749 110.063 72.9721 110.058 73.4463 109.935L113.141 99.6223C113.68 99.4823 114.247 99.4951 114.779 99.6592L194.94 124.377C195.227 124.465 195.525 124.51 195.824 124.51H297.896C298.898 124.51 299.834 124.01 300.391 123.177L321.109 92.17C321.666 91.3369 322.602 90.8367 323.604 90.8367H378.731C379.136 90.8367 379.537 90.9186 379.909 91.0775L456.717 123.86C457.666 124.265 458.756 124.154 459.604 123.566L493.001 100.421C493.902 99.7965 495.072 99.7132 496.052 100.204L555.434 129.918C556.327 130.365 557.383 130.338 558.253 129.846L639.373 83.9788C640.251 83.4824 641.32 83.4604 642.217 83.9201L679.218 102.871C679.869 103.204 680.619 103.288 681.327 103.107L742.628 87.4694L772.741 75.201C773.647 74.8319 774.316 74.0446 774.534 73.0911L784.781 28.2556C785.391 25.588 788.961 25.0624 790.314 27.4411L812.565 66.5726C813.494 68.2053 815.677 68.5931 817.111 67.38L852.784 37.1985C853.969 36.1961 855.722 36.2628 856.828 37.3521L887.819 67.8979C888.878 68.9415 890.542 69.0522 891.729 68.1581L935.207 35.4286L958.232 21.756C959.273 21.1376 960.585 21.2061 961.556 21.9297L977.773 34.0106C978.888 34.8416 980.428 34.7969 981.494 33.9025L1019.77 1.76746C1021.37 0.425098 1023.82 1.08585 1024.52 3.0506L1041 48.898" stroke="#1C73FF" stroke-width="2" stroke-linecap="round"/>
</svg>
