<svg width="15" height="16" viewBox="0 0 15 16" fill="none" xmlns="http://www.w3.org/2000/svg">
<path d="M14.8169 14.4335L11.0862 10.7029C12.1029 9.45954 12.6027 7.87297 12.4824 6.27139C12.3621 4.66981 11.6307 3.17575 10.4397 2.09824C9.24871 1.02073 7.68911 0.442221 6.08351 0.482366C4.47792 0.52251 2.94918 1.17824 1.81349 2.31392C0.677813 3.4496 0.0220832 4.97835 -0.0180617 6.58394C-0.0582065 8.18953 0.520305 9.74914 1.59781 10.9402C2.67532 12.1312 4.16938 12.8625 5.77096 12.9828C7.37254 13.1032 8.95911 12.6033 10.2025 11.5867L13.9331 15.3173C14.051 15.4311 14.2089 15.4941 14.3727 15.4927C14.5366 15.4913 14.6934 15.4256 14.8092 15.3097C14.9251 15.1938 14.9909 15.037 14.9923 14.8732C14.9937 14.7093 14.9307 14.5514 14.8169 14.4335ZM6.24999 11.7504C5.26108 11.7504 4.29438 11.4572 3.47213 10.9078C2.64989 10.3584 2.00903 9.57746 1.63059 8.66383C1.25215 7.7502 1.15313 6.74487 1.34606 5.77496C1.53899 4.80506 2.01519 3.91414 2.71445 3.21488C3.41371 2.51562 4.30463 2.03941 5.27453 1.84649C6.24444 1.65356 7.24977 1.75258 8.1634 2.13102C9.07703 2.50945 9.85793 3.15032 10.4073 3.97256C10.9567 4.79481 11.25 5.76151 11.25 6.75041C11.2485 8.07604 10.7212 9.34694 9.78388 10.2843C8.84652 11.2217 7.57561 11.7489 6.24999 11.7504Z" fill="#9098B4"/>
</svg>
