<svg width="25" height="25" viewBox="0 0 25 25" fill="none" xmlns="http://www.w3.org/2000/svg">
<path d="M23.4092 7.24023L20.9053 16.252C20.7676 16.7442 20.4732 17.1782 20.0666 17.488C19.66 17.7978 19.1635 17.9666 18.6523 17.9688H9C8.48734 17.9685 7.98881 17.8006 7.58047 17.4907C7.17212 17.1807 6.87636 16.7457 6.73828 16.252L3.3125 3.90625H1.5625C1.3553 3.90625 1.15659 3.82394 1.01007 3.67743C0.86356 3.53091 0.78125 3.3322 0.78125 3.125C0.78125 2.9178 0.86356 2.71909 1.01007 2.57257C1.15659 2.42606 1.3553 2.34375 1.5625 2.34375H3.90625C4.07705 2.34372 4.24316 2.39966 4.37914 2.50301C4.51512 2.60637 4.61349 2.75144 4.65918 2.91602L5.58496 6.25H22.6562C22.7767 6.24998 22.8955 6.2778 23.0034 6.3313C23.1113 6.38479 23.2054 6.46251 23.2783 6.55839C23.3512 6.65426 23.4009 6.76569 23.4236 6.88397C23.4463 7.00225 23.4414 7.12418 23.4092 7.24023ZM8.59375 19.5312C8.28472 19.5312 7.98262 19.6229 7.72567 19.7946C7.46872 19.9663 7.26845 20.2103 7.15019 20.4958C7.03193 20.7813 7.00098 21.0955 7.06127 21.3986C7.12156 21.7017 7.27038 21.9801 7.4889 22.1986C7.70742 22.4171 7.98583 22.5659 8.28892 22.6262C8.59202 22.6865 8.90618 22.6556 9.19169 22.5373C9.4772 22.4191 9.72123 22.2188 9.89292 21.9618C10.0646 21.7049 10.1562 21.4028 10.1562 21.0938C10.1562 20.6793 9.99163 20.2819 9.6986 19.9889C9.40558 19.6959 9.00815 19.5312 8.59375 19.5312ZM18.75 19.5312C18.441 19.5312 18.1389 19.6229 17.8819 19.7946C17.625 19.9663 17.4247 20.2103 17.3064 20.4958C17.1882 20.7813 17.1572 21.0955 17.2175 21.3986C17.2778 21.7017 17.4266 21.9801 17.6451 22.1986C17.8637 22.4171 18.1421 22.5659 18.4452 22.6262C18.7483 22.6865 19.0624 22.6556 19.3479 22.5373C19.6335 22.4191 19.8775 22.2188 20.0492 21.9618C20.2209 21.7049 20.3125 21.4028 20.3125 21.0938C20.3125 20.6793 20.1479 20.2819 19.8549 19.9889C19.5618 19.6959 19.1644 19.5312 18.75 19.5312Z" fill="#5898FF"/>
</svg>
