<svg xmlns="http://www.w3.org/2000/svg" border="0" data-ac-wrapper-id="7" width="100%" height="100%" class="anychart-ui-support" ac-id="ac_stage_31a94a8a_0" role="presentation" style="display: block;"><defs><clipPath clip-rule="nonzero" id="ac_clip_31a94a8a_f"><path data-ac-wrapper-id="26" id="ac_rect_31a94a8a_g" fill="none" stroke="black" d="M 0 0 L 199.21875 0 199.21875 26.5 0 26.5 0 0 Z"></path></clipPath><clipPath clip-rule="nonzero" id="ac_clip_31a94a8a_1u"><path data-ac-wrapper-id="75" id="ac_rect_31a94a8a_1v" fill="none" stroke="black" d="M 41 37 L 1000 37 1000 417 41 417 41 37 Z"></path></clipPath><clipPath clip-rule="nonzero" id="ac_clip_31a94a8a_21"><path data-ac-wrapper-id="80" id="ac_rect_31a94a8a_22" fill="none" stroke="black" d="M 41 37 L 1000 37 1000 417 41 417 41 37 Z"></path></clipPath><clipPath clip-rule="nonzero" id="ac_clip_31a94a8a_29"><path data-ac-wrapper-id="86" id="ac_rect_31a94a8a_2a" fill="none" stroke="black" d="M 40 37 L 999 37 999 417 40 417 40 37 Z"></path></clipPath><clipPath clip-rule="nonzero" id="ac_clip_31a94a8a_2t"><path data-ac-wrapper-id="103" id="ac_rect_31a94a8a_2u" fill="none" stroke="black" d="M 320.1884765625 421 L 347.8115234375 421 347.8115234375 436 320.1884765625 436 320.1884765625 421 Z"></path></clipPath></defs><g data-ac-wrapper-id="8" id="ac_layer_31a94a8a_1"><g data-ac-wrapper-id="13" role="article" aria-label="line chart , with 2 line series, . Y-scale minimum value is 0 , maximum value is 18. X-scale with 31 categories: 24.01, 25.01, 26.01, 27.01, 28.01, 29.01, 30.01, 31.01, 01.02, 02.02, 03.02, 04.02, 05.02, 06.02, 07.02, 08.02, 09.02, 10.02, 11.02, 12.02, 13.02, 14.02, 15.02, 16.02, 17.02, 18.02, 19.02, 20.02, 21.02, 22.02, 23.02, . " id="ac_chart_31a94a8a_2"><g data-ac-wrapper-id="14" id="ac_layer_31a94a8a_4"><path data-ac-wrapper-id="15" id="ac_path_31a94a8a_3" fill="#ffffff" stroke="none" d="M 0 0 L 1019 0 1019 0 1019 460 1019 460 0 460 0 460 0 0 0 0 Z"></path></g><path data-ac-wrapper-id="85" clip-path="url(&quot;#ac_clip_31a94a8a_29&quot;)" clipPathUnits="userSpaceOnUse" id="ac_path_31a94a8a_2b" fill="none" stroke="none" d="M 0,0"></path><g data-ac-wrapper-id="78" clip-path="url(&quot;#ac_clip_31a94a8a_21&quot;)" clipPathUnits="userSpaceOnUse" id="ac_layer_31a94a8a_23"><path data-ac-wrapper-id="79" id="ac_path_31a94a8a_1z" fill="none" stroke="#64b5f6" stroke-width="1.5" d="M 55.46774193548387 395.8888888888889 L 86.40322580645162 79.22222222222223 117.33870967741936 269.22222222222223 148.27419354838707 417 179.20967741935482 395.8888888888889 210.1451612903226 417 241.0806451612903 353.6666666666667 272.01612903225805 395.8888888888889 302.9516129032258 311.44444444444446 333.88709677419354 417 364.8225806451613 395.8888888888889 395.758064516129 311.44444444444446 426.69354838709677 417 457.6290322580645 290.33333333333337 488.56451612903226 332.55555555555554 519.5 374.77777777777777 550.4354838709677 374.77777777777777 581.3709677419354 374.77777777777777 612.3064516129033 417 643.241935483871 374.77777777777777 674.1774193548387 395.8888888888889 705.1129032258063 417 736.0483870967743 311.44444444444446 766.983870967742 395.8888888888889 797.9193548387096 417 828.8548387096773 417 859.7903225806451 417 890.7258064516129 417 921.6612903225806 395.8888888888889 952.5967741935483 100.33333333333331 983.5322580645161 417"></path></g><g data-ac-wrapper-id="73" clip-path="url(&quot;#ac_clip_31a94a8a_1u&quot;)" clipPathUnits="userSpaceOnUse" id="ac_layer_31a94a8a_1w"><path data-ac-wrapper-id="74" id="ac_path_31a94a8a_1s" fill="none" stroke="#1976d2" stroke-width="1.5" d="M 55.46774193548387 417 L 86.40322580645162 417 117.33870967741936 417 148.27419354838707 417 179.20967741935482 417 210.1451612903226 417 241.0806451612903 417 272.01612903225805 417 302.9516129032258 417 333.88709677419354 417 364.8225806451613 417 395.758064516129 417 426.69354838709677 417 457.6290322580645 417 488.56451612903226 417 519.5 417 550.4354838709677 417 581.3709677419354 417 612.3064516129033 417 643.241935483871 417 674.1774193548387 417 705.1129032258063 417 736.0483870967743 417 766.983870967742 417 797.9193548387096 417 828.8548387096773 417 859.7903225806451 417 890.7258064516129 417 921.6612903225806 417 952.5967741935483 417 983.5322580645161 417"></path></g><g data-ac-wrapper-id="81" clip-path="url(&quot;#ac_clip_31a94a8a_21&quot;)" clipPathUnits="userSpaceOnUse" id="ac_layer_31a94a8a_24"></g><g data-ac-wrapper-id="82" clip-path="url(&quot;#ac_clip_31a94a8a_21&quot;)" clipPathUnits="userSpaceOnUse" id="ac_layer_31a94a8a_25"><path data-ac-wrapper-id="87" id="ac_path_31a94a8a_2c" fill="#333" stroke="#212121" d="M 92.40322580645162 79.22222222222223 A 6 6 0 0 1 80.40322580645162 79.22222222222223 A 6 6 0 0 1 92.40322580645162 79.22222222222223" fill-opacity="0.85" stroke-width="1.5"></path></g><g data-ac-wrapper-id="76" clip-path="url(&quot;#ac_clip_31a94a8a_1u&quot;)" clipPathUnits="userSpaceOnUse" id="ac_layer_31a94a8a_1x"></g><g data-ac-wrapper-id="77" clip-path="url(&quot;#ac_clip_31a94a8a_1u&quot;)" clipPathUnits="userSpaceOnUse" id="ac_layer_31a94a8a_1y"><path data-ac-wrapper-id="88" id="ac_path_31a94a8a_2d" fill="#333" stroke="#212121" d="M 92.40322580645162 417 L 89.40322580645162 420 86.40322580645162 423 83.40322580645162 420 80.40322580645162 417 83.40322580645162 414 86.40322580645162 411 89.40322580645162 414 92.40322580645162 417 Z" fill-opacity="0.85" stroke-width="1.5"></path></g><path data-ac-wrapper-id="27" id="ac_path_31a94a8a_i" fill="none" stroke="#CECECE" d="M 40 417.5 L 1000 417.5"></path><path data-ac-wrapper-id="28" id="ac_path_31a94a8a_j" fill="none" stroke="#CECECE" d="M 40.5 418 L 40.5 424 M 70.5 418 L 70.5 424 M 101.5 418 L 101.5 424 M 132.5 418 L 132.5 424 M 163.5 418 L 163.5 424 M 194.5 418 L 194.5 424 M 225.5 418 L 225.5 424 M 256.5 418 L 256.5 424 M 287.5 418 L 287.5 424 M 318.5 418 L 318.5 424 M 349.5 418 L 349.5 424 M 380.5 418 L 380.5 424 M 411.5 418 L 411.5 424 M 442.5 418 L 442.5 424 M 473.5 418 L 473.5 424 M 504.5 418 L 504.5 424 M 534.5 418 L 534.5 424 M 565.5 418 L 565.5 424 M 596.5 418 L 596.5 424 M 627.5 418 L 627.5 424 M 658.5 418 L 658.5 424 M 689.5 418 L 689.5 424 M 720.5 418 L 720.5 424 M 751.5 418 L 751.5 424 M 782.5 418 L 782.5 424 M 813.5 418 L 813.5 424 M 844.5 418 L 844.5 424 M 875.5 418 L 875.5 424 M 906.5 418 L 906.5 424 M 937.5 418 L 937.5 424 M 968.5 418 L 968.5 424 M 999.5 418 L 999.5 424"></path><g data-ac-wrapper-id="29" id="ac_layer_31a94a8a_1g"><g data-ac-wrapper-id="30" id="ac_layer_31a94a8a_l"><g data-ac-wrapper-id="31" id="ac_unmanageable-layer_31a94a8a_k"><text aria-hidden="true" font-style="normal" font-variant="normal" font-family="Verdana, Helvetica, Arial, sans-serif" font-size="12" font-weight="normal" letter-spacing="normal" text-decoration="none" fill="#7c868e" opacity="1" x="37.0546875" y="440">24.01</text></g></g><g data-ac-wrapper-id="32" id="ac_layer_31a94a8a_n"><g data-ac-wrapper-id="33" id="ac_unmanageable-layer_31a94a8a_m"><text aria-hidden="true" font-style="normal" font-variant="normal" font-family="Verdana, Helvetica, Arial, sans-serif" font-size="12" font-weight="normal" letter-spacing="normal" text-decoration="none" fill="#7c868e" opacity="1" x="99.0546875" y="440">26.01</text></g></g><g data-ac-wrapper-id="34" id="ac_layer_31a94a8a_p"><g data-ac-wrapper-id="35" id="ac_unmanageable-layer_31a94a8a_o"><text aria-hidden="true" font-style="normal" font-variant="normal" font-family="Verdana, Helvetica, Arial, sans-serif" font-size="12" font-weight="normal" letter-spacing="normal" text-decoration="none" fill="#7c868e" opacity="1" x="161.0546875" y="440">28.01</text></g></g><g data-ac-wrapper-id="36" id="ac_layer_31a94a8a_r"><g data-ac-wrapper-id="37" id="ac_unmanageable-layer_31a94a8a_q"><text aria-hidden="true" font-style="normal" font-variant="normal" font-family="Verdana, Helvetica, Arial, sans-serif" font-size="12" font-weight="normal" letter-spacing="normal" text-decoration="none" fill="#7c868e" opacity="1" x="223.0546875" y="440">30.01</text></g></g><g data-ac-wrapper-id="38" id="ac_layer_31a94a8a_t"><g data-ac-wrapper-id="39" id="ac_unmanageable-layer_31a94a8a_s"><text aria-hidden="true" font-style="normal" font-variant="normal" font-family="Verdana, Helvetica, Arial, sans-serif" font-size="12" font-weight="normal" letter-spacing="normal" text-decoration="none" fill="#7c868e" opacity="1" x="284.8740234375" y="440">01.02</text></g></g><g data-ac-wrapper-id="40" id="ac_layer_31a94a8a_v"><g data-ac-wrapper-id="41" id="ac_unmanageable-layer_31a94a8a_u"><text aria-hidden="true" font-style="normal" font-variant="normal" font-family="Verdana, Helvetica, Arial, sans-serif" font-size="12" font-weight="normal" letter-spacing="normal" text-decoration="none" fill="#7c868e" opacity="1" x="346.8740234375" y="440">03.02</text></g></g><g data-ac-wrapper-id="42" id="ac_layer_31a94a8a_x"><g data-ac-wrapper-id="43" id="ac_unmanageable-layer_31a94a8a_w"><text aria-hidden="true" font-style="normal" font-variant="normal" font-family="Verdana, Helvetica, Arial, sans-serif" font-size="12" font-weight="normal" letter-spacing="normal" text-decoration="none" fill="#7c868e" opacity="1" x="408.8740234375" y="440">05.02</text></g></g><g data-ac-wrapper-id="44" id="ac_layer_31a94a8a_z"><g data-ac-wrapper-id="45" id="ac_unmanageable-layer_31a94a8a_y"><text aria-hidden="true" font-style="normal" font-variant="normal" font-family="Verdana, Helvetica, Arial, sans-serif" font-size="12" font-weight="normal" letter-spacing="normal" text-decoration="none" fill="#7c868e" opacity="1" x="470.8740234375" y="440">07.02</text></g></g><g data-ac-wrapper-id="46" id="ac_layer_31a94a8a_11"><g data-ac-wrapper-id="47" id="ac_unmanageable-layer_31a94a8a_10"><text aria-hidden="true" font-style="normal" font-variant="normal" font-family="Verdana, Helvetica, Arial, sans-serif" font-size="12" font-weight="normal" letter-spacing="normal" text-decoration="none" fill="#7c868e" opacity="1" x="531.8740234375" y="440">09.02</text></g></g><g data-ac-wrapper-id="48" id="ac_layer_31a94a8a_13"><g data-ac-wrapper-id="49" id="ac_unmanageable-layer_31a94a8a_12"><text aria-hidden="true" font-style="normal" font-variant="normal" font-family="Verdana, Helvetica, Arial, sans-serif" font-size="12" font-weight="normal" letter-spacing="normal" text-decoration="none" fill="#7c868e" opacity="1" x="593.8740234375" y="440">11.02</text></g></g><g data-ac-wrapper-id="50" id="ac_layer_31a94a8a_15"><g data-ac-wrapper-id="51" id="ac_unmanageable-layer_31a94a8a_14"><text aria-hidden="true" font-style="normal" font-variant="normal" font-family="Verdana, Helvetica, Arial, sans-serif" font-size="12" font-weight="normal" letter-spacing="normal" text-decoration="none" fill="#7c868e" opacity="1" x="655.8740234375" y="440">13.02</text></g></g><g data-ac-wrapper-id="52" id="ac_layer_31a94a8a_17"><g data-ac-wrapper-id="53" id="ac_unmanageable-layer_31a94a8a_16"><text aria-hidden="true" font-style="normal" font-variant="normal" font-family="Verdana, Helvetica, Arial, sans-serif" font-size="12" font-weight="normal" letter-spacing="normal" text-decoration="none" fill="#7c868e" opacity="1" x="717.8740234375" y="440">15.02</text></g></g><g data-ac-wrapper-id="54" id="ac_layer_31a94a8a_19"><g data-ac-wrapper-id="55" id="ac_unmanageable-layer_31a94a8a_18"><text aria-hidden="true" font-style="normal" font-variant="normal" font-family="Verdana, Helvetica, Arial, sans-serif" font-size="12" font-weight="normal" letter-spacing="normal" text-decoration="none" fill="#7c868e" opacity="1" x="779.8740234375" y="440">17.02</text></g></g><g data-ac-wrapper-id="56" id="ac_layer_31a94a8a_1b"><g data-ac-wrapper-id="57" id="ac_unmanageable-layer_31a94a8a_1a"><text aria-hidden="true" font-style="normal" font-variant="normal" font-family="Verdana, Helvetica, Arial, sans-serif" font-size="12" font-weight="normal" letter-spacing="normal" text-decoration="none" fill="#7c868e" opacity="1" x="841.8740234375" y="440">19.02</text></g></g><g data-ac-wrapper-id="58" id="ac_layer_31a94a8a_1d"><g data-ac-wrapper-id="59" id="ac_unmanageable-layer_31a94a8a_1c"><text aria-hidden="true" font-style="normal" font-variant="normal" font-family="Verdana, Helvetica, Arial, sans-serif" font-size="12" font-weight="normal" letter-spacing="normal" text-decoration="none" fill="#7c868e" opacity="1" x="903.8740234375" y="440">21.02</text></g></g><g data-ac-wrapper-id="60" id="ac_layer_31a94a8a_1f"><g data-ac-wrapper-id="61" id="ac_unmanageable-layer_31a94a8a_1e"><text aria-hidden="true" font-style="normal" font-variant="normal" font-family="Verdana, Helvetica, Arial, sans-serif" font-size="12" font-weight="normal" letter-spacing="normal" text-decoration="none" fill="#7c868e" opacity="1" x="965.8740234375" y="440">23.02</text></g></g></g><path data-ac-wrapper-id="62" id="ac_path_31a94a8a_1h" fill="none" stroke="#CECECE" d="M 40.5 37 L 40.5 418"></path><path data-ac-wrapper-id="63" id="ac_path_31a94a8a_1i" fill="none" stroke="#CECECE" d="M 40 417.5 L 34 417.5 M 40 290.5 L 34 290.5 M 40 163.5 L 34 163.5 M 40 37.5 L 34 37.5"></path><g data-ac-wrapper-id="64" id="ac_layer_31a94a8a_1r"><g data-ac-wrapper-id="65" id="ac_layer_31a94a8a_1k"><g data-ac-wrapper-id="66" id="ac_unmanageable-layer_31a94a8a_1j"><text aria-hidden="true" font-style="normal" font-variant="normal" font-family="Verdana, Helvetica, Arial, sans-serif" font-size="12" font-weight="normal" letter-spacing="normal" text-decoration="none" fill="#7c868e" opacity="1" x="22" y="421">0</text></g></g><g data-ac-wrapper-id="67" id="ac_layer_31a94a8a_1m"><g data-ac-wrapper-id="68" id="ac_unmanageable-layer_31a94a8a_1l"><text aria-hidden="true" font-style="normal" font-variant="normal" font-family="Verdana, Helvetica, Arial, sans-serif" font-size="12" font-weight="normal" letter-spacing="normal" text-decoration="none" fill="#7c868e" opacity="1" x="22" y="294">6</text></g></g><g data-ac-wrapper-id="69" id="ac_layer_31a94a8a_1o"><g data-ac-wrapper-id="70" id="ac_unmanageable-layer_31a94a8a_1n"><text aria-hidden="true" font-style="normal" font-variant="normal" font-family="Verdana, Helvetica, Arial, sans-serif" font-size="12" font-weight="normal" letter-spacing="normal" text-decoration="none" fill="#7c868e" opacity="1" x="14.37109375" y="168">12</text></g></g><g data-ac-wrapper-id="71" id="ac_layer_31a94a8a_1q"><g data-ac-wrapper-id="72" id="ac_unmanageable-layer_31a94a8a_1p"><text aria-hidden="true" font-style="normal" font-variant="normal" font-family="Verdana, Helvetica, Arial, sans-serif" font-size="12" font-weight="normal" letter-spacing="normal" text-decoration="none" fill="#7c868e" opacity="1" x="14.37109375" y="41">18</text></g></g></g><path data-ac-wrapper-id="83" pointer-events="none" id="ac_path_31a94a8a_26" fill="none" stroke="#969EA5" d="M 333.5 37 L 333.5 417"></path><path data-ac-wrapper-id="84" pointer-events="none" id="ac_path_31a94a8a_27" fill="none" stroke="none" d="M 0,0"></path><g data-ac-wrapper-id="99" id="ac_layer_31a94a8a_2r"><g data-ac-wrapper-id="100" pointer-events="none" id="ac_layer_31a94a8a_2p"><path data-ac-wrapper-id="101" pointer-events="none" id="ac_path_31a94a8a_2o" fill="#212121" fill-opacity="0.7" stroke="none" d="M 313.1884765625 416 L 354.8115234375 416 A 3 3 0 0 1 357.8115234375 419 L 357.8115234375 438 A 3 3 0 0 1 354.8115234375 441 L 313.1884765625 441 A 3 3 0 0 1 310.1884765625 438 L 310.1884765625 419 A 3 3 0 0 1 313.1884765625 416 Z"></path></g><text data-ac-wrapper-id="102" font-style="normal" font-variant="normal" font-family="Verdana, Helvetica, Arial, sans-serif" font-size="12" font-weight="400" fill="#ffffff" letter-spacing="normal" text-decoration="none" direction="ltr" text-anchor="start" x="320.1884765625" y="433" aria-hidden="true" pointer-events="none" id="ac_text_31a94a8a_2q" clip-path="url(&quot;#ac_clip_31a94a8a_2t&quot;)" clipPathUnits="userSpaceOnUse" style="user-select: none; font-family: Verdana, Helvetica, Arial, sans-serif; opacity: 1;"><tspan x="320.1884765625" dy="0">2.02</tspan></text></g><g data-ac-wrapper-id="16" transform="matrix(1,0,0,1,404.890625,10)" clip-path="url(&quot;#ac_clip_31a94a8a_f&quot;)" clipPathUnits="userSpaceOnUse" id="ac_layer_31a94a8a_h"><g data-ac-wrapper-id="17" id="ac_layer_31a94a8a_d"><g data-ac-wrapper-id="18" transform="matrix(1,0,0,1,10,0)" id="ac_layer_31a94a8a_8"><text data-ac-wrapper-id="19" font-style="normal" font-variant="normal" font-family="Verdana, Helvetica, Arial, sans-serif" font-size="12" font-weight="normal" fill="#7c868e" letter-spacing="normal" text-decoration="none" direction="ltr" text-anchor="start" x="20" y="12.75" aria-hidden="true" id="ac_text_31a94a8a_5" style="user-select: none; font-family: Verdana, Helvetica, Arial, sans-serif; opacity: 1; cursor: pointer;"><tspan x="20" dy="0">Просмотры</tspan></text><path data-ac-wrapper-id="20" transform="matrix(1,0,0,1,0,0.75)" id="ac_path_31a94a8a_6" fill="#64b5f6" stroke="#64b5f6" stroke-width="1.5" d="M 0 0 L 15 0 15 15 0 15 Z" style="cursor: pointer;"></path><path data-ac-wrapper-id="21" id="ac_rect_31a94a8a_7" fill="#FFFFFF" fill-opacity="0.00001" stroke="none" d="M 0 0 L 90.296875 0 90.296875 16.5 0 16.5 0 0 Z" style="cursor: pointer;"></path></g><g data-ac-wrapper-id="22" transform="matrix(1,0,0,1,115.296875,0)" id="ac_layer_31a94a8a_c"><text data-ac-wrapper-id="23" font-style="normal" font-variant="normal" font-family="Verdana, Helvetica, Arial, sans-serif" font-size="12" font-weight="normal" fill="#7c868e" letter-spacing="normal" text-decoration="none" direction="ltr" text-anchor="start" x="20" y="12.75" aria-hidden="true" id="ac_text_31a94a8a_9" style="user-select: none; font-family: Verdana, Helvetica, Arial, sans-serif; opacity: 1; cursor: pointer;"><tspan x="20" dy="0">Отклики</tspan></text><path data-ac-wrapper-id="24" transform="matrix(1,0,0,1,0,0.75)" id="ac_path_31a94a8a_a" fill="#1976d2" stroke="#1976d2" stroke-width="1.5" d="M 0 0 L 15 0 15 15 0 15 Z" style="cursor: pointer;"></path><path data-ac-wrapper-id="25" id="ac_rect_31a94a8a_b" fill="#FFFFFF" fill-opacity="0.00001" stroke="none" d="M 0 0 L 73.921875 0 73.921875 16.5 0 16.5 0 0 Z" style="cursor: pointer;"></path></g></g></g></g></g></svg>